<svg width="24" height="24" viewBox="0 0 24 24" fill="none" xmlns="http://www.w3.org/2000/svg">
  <!-- 小三角（青色，最左边） -->
  <path d="M1.363647 22.5834H7.98183L4.98547 13.2603C4.93092 13.085 4.74183 12.99 4.56728 13.0448C4.46547 13.0777 4.38547 13.158 4.35274 13.2603L1.363647 22.5834Z" fill="#00DCFF"/>
  <!-- 大三角（蓝色，主体） -->
  <path d="M8.31274 22.5944H22.48L15.7127 1.635627C15.6546 1.46027 15.4691 1.365285 15.2946 1.423738C15.1927 1.456617 15.1127 1.536989 15.08 1.635627L8.31274 22.5944Z" fill="#006AFF"/>
  <!-- 中大三角（蓝色） -->
  <path d="M4.01084 22.5943H14.7345L9.6872 6.95472C9.62902 6.77936 9.44356 6.68438 9.26902 6.74283C9.1672 6.77571 9.0872 6.85608 9.05447 6.95472L4.0072 22.5943H4.01084Z" fill="#006AFF"/>
  <!-- 中三角（青色） -->
  <path d="M17.4509 22.5946H25.1309L21.6072 11.6129C21.5527 11.4375 21.3636 11.3425 21.189 11.3973C21.0872 11.4302 21.0072 11.5106 20.9745 11.6129L17.4509 22.5946Z" fill="#00DCFF"/>
  <!-- 中小三角（青色） -->
  <path d="M6.98907 22.5946H16.0582L11.84 9.60364C11.7818 9.42829 11.5963 9.3333 11.4218 9.39176C11.32 9.42463 11.2436 9.50501 11.2109 9.60364L6.99271 22.5946H6.98907Z" fill="#00DCFF"/>
</svg>
